<?xml version="1.0" standalone="no"?>
<!DOCTYPE svg PUBLIC "-//W3C//DTD SVG 20010904//EN"
 "http://www.w3.org/TR/2001/REC-SVG-20010904/DTD/svg10.dtd">
<svg version="1.0" xmlns="http://www.w3.org/2000/svg"
 width="260.000000pt" height="260.000000pt" viewBox="0 0 260.000000 260.000000"
 preserveAspectRatio="xMidYMid meet">
<metadata>
Created by potrace 1.14, written by Peter Selinger 2001-2017
</metadata>
<g transform="translate(0.000000,260.000000) scale(0.100000,-0.100000)"
fill="#000000" stroke="none">
<path d="M1170 2415 c-118 -22 -134 -26 -210 -51 -172 -58 -315 -148 -456
-288 -217 -216 -334 -491 -339 -796 -5 -342 108 -625 344 -861 167 -168 392
-289 598 -324 21 -3 61 -10 88 -15 52 -9 260 -6 330 5 112 18 272 73 379 133
368 201 605 588 609 992 2 233 -38 408 -135 590 -67 124 -108 179 -208 281
-178 180 -366 276 -655 335 -57 11 -280 10 -345 -1z m367 -237 c335 -73 593
-307 704 -635 15 -46 26 -83 24 -83 -2 0 1 -15 6 -32 14 -47 20 -253 8 -318
-39 -224 -128 -395 -283 -543 -182 -174 -409 -265 -660 -265 -340 1 -643 176
-817 471 -90 152 -130 315 -125 507 2 69 6 134 9 145 37 148 67 224 123 315
155 252 379 398 694 454 59 10 240 1 317 -16z"/>
<path d="M942 1840 c-58 -35 -56 -21 -58 -580 0 -283 3 -527 8 -541 14 -40 49
-68 95 -73 38 -5 55 2 221 98 99 57 186 106 193 110 8 3 28 14 44 25 28 17
125 73 345 198 107 61 133 83 150 123 15 36 -2 99 -33 121 -25 18 -815 502
-849 520 -35 19 -84 18 -116 -1z"/>
</g>
</svg>
